<svg width="1030" height="742" viewBox="0 0 1030 742" fill="none" xmlns="http://www.w3.org/2000/svg">
<rect width="1030" height="741" fill="#31C2EE"/>
<path fill-rule="evenodd" clip-rule="evenodd" d="M14.5917 107.773L0 113.941V410L7.62939e-06 643H1030V410V389V224.963L1015.41 243.467C1001.68 261.97 972.492 298.978 944.167 292.81C924.132 288.447 903.667 262.484 883.381 236.746C874.987 226.096 866.623 215.485 858.333 206.459C837.37 183.635 815.936 170.946 794.728 158.39C787.281 153.981 779.861 149.589 772.5 144.78C768.734 142.32 764.954 139.751 761.162 137.175C736.431 120.371 711.226 103.245 686.667 113.941C675.387 118.853 663.972 129.634 652.528 140.441C635.235 156.772 617.879 173.164 600.833 169.452C589.279 166.936 577.582 155.183 565.858 143.403C548.842 126.306 531.771 109.153 515 120.109C501.869 128.687 488.553 154.497 475.225 180.333C459.802 210.228 444.361 240.158 429.167 243.467C410.593 247.511 391.651 211.774 372.823 176.255C362.938 157.606 353.085 139.017 343.333 126.276C315.008 89.2691 285.825 101.605 257.5 126.276C251.446 131.55 245.352 137.387 239.236 143.245C216.739 164.796 193.937 186.637 171.667 181.788C155.082 178.176 138.204 159.764 121.376 141.407C109.462 128.411 97.5741 115.443 85.8333 107.773C57.5083 89.2691 28.325 101.605 14.5917 107.773Z" fill="#1D88B2"/>
<path fill-rule="evenodd" clip-rule="evenodd" d="M0 340.156V378.314V497.207V514.509V741H1030V514.509V505.561V267.697C1003.6 264.968 991.201 269.868 973 289.208C965.889 289.208 958.207 299.827 949.206 312.268C936.477 329.862 921.112 351.1 901 351.1C887.525 351.1 871.585 337.889 855.115 324.238C829.621 303.108 802.858 280.926 782 305.059C765.639 323.989 758.815 342.801 752.439 360.38C745.436 379.689 738.972 397.51 721 412.363C686.667 440.737 652.333 435.062 618 412.363C583.667 389.664 549.333 366.964 515 383.989C503.556 389.664 492.111 399.752 480.667 409.841C457.778 430.018 434.889 450.195 412 435.062C382.043 415.256 331.15 355.822 295.855 314.605C290.699 308.584 285.876 302.952 281.5 297.888C247.167 258.165 207.833 282.318 173.5 322.041C163.506 333.604 156.266 344.166 150.176 353.048C135.346 374.681 127.339 386.36 103 378.314C91.6565 374.564 85.5163 372.587 79.4219 370.478C67.0706 366.203 54.9077 361.383 0 340.156Z" fill="#02325A"/>
<path fill-rule="evenodd" clip-rule="evenodd" d="M0 661.713L71 640.599C89.8833 624.722 144.233 573.052 182 610.099C220.625 647.146 224.875 688.137 263.5 714.599C301.267 741.061 305.567 693.523 343.333 640.599C381.1 587.675 400.733 670.807 438.5 676.099C477.125 681.392 533.883 620.345 572.508 652.099C610.275 683.854 617.733 705.487 655.5 684.317C681 648.817 688.233 635.307 726 640.599C764.625 645.892 753.65 691.381 800.825 693.599C848 695.817 901 661.713 915.842 631.099C915.842 631.099 941.883 600.486 976.5 631.099C1011.12 661.713 1030 631.099 1030 631.099V741.099H1011.12C992.233 741.099 953.608 741.099 915.842 741.099C877.217 741.099 839.45 741.099 800.825 741.099C763.058 741.099 724.433 741.099 686.667 741.099C648.9 741.099 610.275 741.099 572.508 741.099C533.883 741.099 496.117 741.099 457.492 741.099C419.725 741.099 381.1 741.099 343.333 741.099C305.567 741.099 266.942 741.099 229.175 741.099C190.55 741.099 152.783 741.099 114.158 741.099C76.3917 741.099 37.7667 741.099 18.8833 741.099H0V661.713Z" fill="#30C0EC"/>
</svg>
